<mxfile host="app.diagrams.net" agent="Mozilla/5.0 (Windows NT 10.0; Win64; x64; rv:142.0) Gecko/20100101 Firefox/142.0" version="28.1.1">
  <diagram name="Seite-1" id="Hahzg_7kRcaVDWdicUzG">
    <mxGraphModel dx="1375" dy="1948" grid="1" gridSize="10" guides="1" tooltips="1" connect="1" arrows="1" fold="1" page="1" pageScale="1" pageWidth="827" pageHeight="1169" math="0" shadow="0">
      <root>
        <mxCell id="0" />
        <mxCell id="1" parent="0" />
        <mxCell id="dG8D63lNI3oWvQCbFCwT-28" style="edgeStyle=orthogonalEdgeStyle;rounded=0;orthogonalLoop=1;jettySize=auto;html=1;exitX=0;exitY=0;exitDx=0;exitDy=0;entryX=1;entryY=0.75;entryDx=0;entryDy=0;" edge="1" parent="1" source="dG8D63lNI3oWvQCbFCwT-1" target="dG8D63lNI3oWvQCbFCwT-6">
          <mxGeometry relative="1" as="geometry">
            <Array as="points">
              <mxPoint x="320" y="270" />
            </Array>
          </mxGeometry>
        </mxCell>
        <mxCell id="dG8D63lNI3oWvQCbFCwT-29" value="UART" style="edgeLabel;html=1;align=center;verticalAlign=middle;resizable=0;points=[];" vertex="1" connectable="0" parent="dG8D63lNI3oWvQCbFCwT-28">
          <mxGeometry x="0.3333" y="2" relative="1" as="geometry">
            <mxPoint x="10" as="offset" />
          </mxGeometry>
        </mxCell>
        <mxCell id="dG8D63lNI3oWvQCbFCwT-38" style="edgeStyle=orthogonalEdgeStyle;rounded=0;orthogonalLoop=1;jettySize=auto;html=1;exitX=0;exitY=0.25;exitDx=0;exitDy=0;entryX=1;entryY=1;entryDx=0;entryDy=0;" edge="1" parent="1" source="dG8D63lNI3oWvQCbFCwT-1" target="dG8D63lNI3oWvQCbFCwT-6">
          <mxGeometry relative="1" as="geometry">
            <Array as="points">
              <mxPoint x="340" y="290" />
              <mxPoint x="340" y="290" />
            </Array>
          </mxGeometry>
        </mxCell>
        <mxCell id="dG8D63lNI3oWvQCbFCwT-39" value="UART2" style="edgeLabel;html=1;align=center;verticalAlign=middle;resizable=0;points=[];" vertex="1" connectable="0" parent="dG8D63lNI3oWvQCbFCwT-38">
          <mxGeometry x="0.037" y="1" relative="1" as="geometry">
            <mxPoint x="2" as="offset" />
          </mxGeometry>
        </mxCell>
        <mxCell id="dG8D63lNI3oWvQCbFCwT-43" style="edgeStyle=orthogonalEdgeStyle;rounded=0;orthogonalLoop=1;jettySize=auto;html=1;exitX=0;exitY=0.75;exitDx=0;exitDy=0;entryX=1;entryY=0.25;entryDx=0;entryDy=0;" edge="1" parent="1" source="dG8D63lNI3oWvQCbFCwT-1" target="dG8D63lNI3oWvQCbFCwT-5">
          <mxGeometry relative="1" as="geometry" />
        </mxCell>
        <mxCell id="dG8D63lNI3oWvQCbFCwT-44" value="SPI&lt;br&gt;4 wire" style="edgeLabel;html=1;align=center;verticalAlign=middle;resizable=0;points=[];" vertex="1" connectable="0" parent="dG8D63lNI3oWvQCbFCwT-43">
          <mxGeometry y="-3" relative="1" as="geometry">
            <mxPoint as="offset" />
          </mxGeometry>
        </mxCell>
        <mxCell id="dG8D63lNI3oWvQCbFCwT-45" style="edgeStyle=orthogonalEdgeStyle;rounded=0;orthogonalLoop=1;jettySize=auto;html=1;exitX=1;exitY=0.25;exitDx=0;exitDy=0;entryX=0.5;entryY=1;entryDx=0;entryDy=0;" edge="1" parent="1" source="dG8D63lNI3oWvQCbFCwT-1" target="dG8D63lNI3oWvQCbFCwT-3">
          <mxGeometry relative="1" as="geometry" />
        </mxCell>
        <mxCell id="dG8D63lNI3oWvQCbFCwT-46" style="edgeStyle=orthogonalEdgeStyle;rounded=0;orthogonalLoop=1;jettySize=auto;html=1;exitX=1;exitY=0.25;exitDx=0;exitDy=0;entryX=0.25;entryY=0;entryDx=0;entryDy=0;" edge="1" parent="1" source="dG8D63lNI3oWvQCbFCwT-1" target="dG8D63lNI3oWvQCbFCwT-4">
          <mxGeometry relative="1" as="geometry">
            <Array as="points">
              <mxPoint x="716" y="290" />
            </Array>
          </mxGeometry>
        </mxCell>
        <mxCell id="dG8D63lNI3oWvQCbFCwT-47" style="edgeStyle=orthogonalEdgeStyle;rounded=0;orthogonalLoop=1;jettySize=auto;html=1;exitX=1;exitY=0.25;exitDx=0;exitDy=0;entryX=0.5;entryY=0;entryDx=0;entryDy=0;" edge="1" parent="1" source="dG8D63lNI3oWvQCbFCwT-1" target="dG8D63lNI3oWvQCbFCwT-2">
          <mxGeometry relative="1" as="geometry" />
        </mxCell>
        <mxCell id="dG8D63lNI3oWvQCbFCwT-48" value="I2C bus" style="edgeLabel;html=1;align=center;verticalAlign=middle;resizable=0;points=[];" vertex="1" connectable="0" parent="dG8D63lNI3oWvQCbFCwT-47">
          <mxGeometry x="-0.7975" y="2" relative="1" as="geometry">
            <mxPoint x="18" as="offset" />
          </mxGeometry>
        </mxCell>
        <mxCell id="dG8D63lNI3oWvQCbFCwT-1" value="&lt;div&gt;Micro&lt;/div&gt;&lt;div&gt;Controller&lt;/div&gt;&lt;div&gt;&lt;br&gt;&lt;/div&gt;ESP32 C6" style="whiteSpace=wrap;html=1;aspect=fixed;" vertex="1" parent="1">
          <mxGeometry x="374" y="270" width="80" height="80" as="geometry" />
        </mxCell>
        <mxCell id="dG8D63lNI3oWvQCbFCwT-2" value="&lt;div&gt;Port&lt;/div&gt;&lt;div&gt;Expander&lt;br&gt;&lt;br&gt;MCP23017&lt;/div&gt;" style="whiteSpace=wrap;html=1;aspect=fixed;" vertex="1" parent="1">
          <mxGeometry x="510" y="310" width="80" height="80" as="geometry" />
        </mxCell>
        <mxCell id="dG8D63lNI3oWvQCbFCwT-3" value="&lt;div&gt;4ch 16bit&lt;/div&gt;&lt;div&gt;ADC&lt;/div&gt;&lt;div&gt;&lt;br&gt;&lt;/div&gt;&lt;div&gt;ADS1115&lt;/div&gt;" style="whiteSpace=wrap;html=1;aspect=fixed;" vertex="1" parent="1">
          <mxGeometry x="500" y="180" width="80" height="80" as="geometry" />
        </mxCell>
        <mxCell id="dG8D63lNI3oWvQCbFCwT-53" style="edgeStyle=orthogonalEdgeStyle;rounded=0;orthogonalLoop=1;jettySize=auto;html=1;exitX=0.5;exitY=0;exitDx=0;exitDy=0;" edge="1" parent="1" source="dG8D63lNI3oWvQCbFCwT-4" target="dG8D63lNI3oWvQCbFCwT-59">
          <mxGeometry relative="1" as="geometry">
            <mxPoint x="816.01" y="230" as="targetPoint" />
            <Array as="points">
              <mxPoint x="736.01" y="220" />
              <mxPoint x="736.01" y="220" />
            </Array>
          </mxGeometry>
        </mxCell>
        <mxCell id="dG8D63lNI3oWvQCbFCwT-54" value="CH1: Iris&lt;br&gt;CH2: Zoom&lt;br&gt;CH3: Focus" style="edgeLabel;html=1;align=center;verticalAlign=middle;resizable=0;points=[];" vertex="1" connectable="0" parent="dG8D63lNI3oWvQCbFCwT-53">
          <mxGeometry x="-0.1484" y="1" relative="1" as="geometry">
            <mxPoint x="1" y="-12" as="offset" />
          </mxGeometry>
        </mxCell>
        <mxCell id="dG8D63lNI3oWvQCbFCwT-4" value="&lt;div&gt;4ch 16bit&lt;/div&gt;&lt;div&gt;DAC&lt;/div&gt;&lt;div&gt;&lt;br&gt;&lt;/div&gt;&lt;div&gt;AD5665R&lt;/div&gt;" style="whiteSpace=wrap;html=1;aspect=fixed;" vertex="1" parent="1">
          <mxGeometry x="696.01" y="310" width="80" height="80" as="geometry" />
        </mxCell>
        <mxCell id="dG8D63lNI3oWvQCbFCwT-5" value="&lt;div&gt;Micro SD&lt;/div&gt;&lt;div&gt;card slot&lt;/div&gt;&lt;div&gt;&lt;br&gt;&lt;/div&gt;&lt;div&gt;&lt;br&gt;&lt;/div&gt;" style="whiteSpace=wrap;html=1;aspect=fixed;" vertex="1" parent="1">
          <mxGeometry x="240" y="310" width="80" height="80" as="geometry" />
        </mxCell>
        <mxCell id="dG8D63lNI3oWvQCbFCwT-30" style="edgeStyle=orthogonalEdgeStyle;rounded=0;orthogonalLoop=1;jettySize=auto;html=1;exitX=0.5;exitY=0;exitDx=0;exitDy=0;entryX=0.5;entryY=1;entryDx=0;entryDy=0;" edge="1" parent="1" source="dG8D63lNI3oWvQCbFCwT-6" target="dG8D63lNI3oWvQCbFCwT-7">
          <mxGeometry relative="1" as="geometry" />
        </mxCell>
        <mxCell id="dG8D63lNI3oWvQCbFCwT-56" style="edgeStyle=orthogonalEdgeStyle;rounded=0;orthogonalLoop=1;jettySize=auto;html=1;exitX=0;exitY=0.75;exitDx=0;exitDy=0;entryX=1;entryY=0.25;entryDx=0;entryDy=0;" edge="1" parent="1" source="dG8D63lNI3oWvQCbFCwT-6" target="dG8D63lNI3oWvQCbFCwT-37">
          <mxGeometry relative="1" as="geometry" />
        </mxCell>
        <mxCell id="dG8D63lNI3oWvQCbFCwT-6" value="Level Shifter&lt;br&gt;&lt;br&gt;TXS0104" style="whiteSpace=wrap;html=1;aspect=fixed;" vertex="1" parent="1">
          <mxGeometry x="240" y="210" width="80" height="80" as="geometry" />
        </mxCell>
        <mxCell id="dG8D63lNI3oWvQCbFCwT-31" style="edgeStyle=orthogonalEdgeStyle;rounded=0;orthogonalLoop=1;jettySize=auto;html=1;exitX=0.5;exitY=0;exitDx=0;exitDy=0;entryX=1;entryY=0;entryDx=0;entryDy=0;" edge="1" parent="1" source="dG8D63lNI3oWvQCbFCwT-7" target="dG8D63lNI3oWvQCbFCwT-17">
          <mxGeometry relative="1" as="geometry">
            <Array as="points">
              <mxPoint x="280" y="30" />
              <mxPoint x="131" y="30" />
            </Array>
          </mxGeometry>
        </mxCell>
        <mxCell id="dG8D63lNI3oWvQCbFCwT-32" style="edgeStyle=orthogonalEdgeStyle;rounded=0;orthogonalLoop=1;jettySize=auto;html=1;exitX=0.5;exitY=0;exitDx=0;exitDy=0;entryX=0;entryY=0;entryDx=0;entryDy=0;" edge="1" parent="1" source="dG8D63lNI3oWvQCbFCwT-7" target="dG8D63lNI3oWvQCbFCwT-16">
          <mxGeometry relative="1" as="geometry">
            <Array as="points">
              <mxPoint x="280" y="30" />
              <mxPoint x="775" y="30" />
            </Array>
          </mxGeometry>
        </mxCell>
        <mxCell id="dG8D63lNI3oWvQCbFCwT-33" value="Inverted UART" style="edgeLabel;html=1;align=center;verticalAlign=middle;resizable=0;points=[];" vertex="1" connectable="0" parent="dG8D63lNI3oWvQCbFCwT-32">
          <mxGeometry x="-0.3063" y="1" relative="1" as="geometry">
            <mxPoint as="offset" />
          </mxGeometry>
        </mxCell>
        <mxCell id="dG8D63lNI3oWvQCbFCwT-7" value="&lt;div&gt;Logic&lt;/div&gt;&lt;div&gt;Inverter&lt;/div&gt;&lt;div&gt;&lt;br&gt;&lt;/div&gt;&lt;div&gt;SN74LS04&lt;/div&gt;" style="whiteSpace=wrap;html=1;aspect=fixed;" vertex="1" parent="1">
          <mxGeometry x="240" y="110" width="80" height="80" as="geometry" />
        </mxCell>
        <mxCell id="dG8D63lNI3oWvQCbFCwT-25" style="edgeStyle=orthogonalEdgeStyle;rounded=0;orthogonalLoop=1;jettySize=auto;html=1;exitX=0.5;exitY=1;exitDx=0;exitDy=0;entryX=0.5;entryY=0;entryDx=0;entryDy=0;" edge="1" parent="1" source="dG8D63lNI3oWvQCbFCwT-8" target="dG8D63lNI3oWvQCbFCwT-1">
          <mxGeometry relative="1" as="geometry" />
        </mxCell>
        <mxCell id="dG8D63lNI3oWvQCbFCwT-26" value="5V / GND" style="edgeLabel;html=1;align=center;verticalAlign=middle;resizable=0;points=[];" vertex="1" connectable="0" parent="dG8D63lNI3oWvQCbFCwT-25">
          <mxGeometry x="-0.25" y="2" relative="1" as="geometry">
            <mxPoint as="offset" />
          </mxGeometry>
        </mxCell>
        <mxCell id="dG8D63lNI3oWvQCbFCwT-8" value="&lt;div&gt;5V voltage&lt;/div&gt;&lt;div&gt;regulator&lt;/div&gt;&lt;div&gt;&lt;br&gt;&lt;/div&gt;&lt;div&gt;MC7805&lt;/div&gt;" style="whiteSpace=wrap;html=1;aspect=fixed;" vertex="1" parent="1">
          <mxGeometry x="374" y="160" width="80" height="80" as="geometry" />
        </mxCell>
        <mxCell id="dG8D63lNI3oWvQCbFCwT-21" style="edgeStyle=orthogonalEdgeStyle;rounded=0;orthogonalLoop=1;jettySize=auto;html=1;exitX=1;exitY=0.5;exitDx=0;exitDy=0;" edge="1" parent="1" source="dG8D63lNI3oWvQCbFCwT-13">
          <mxGeometry relative="1" as="geometry">
            <mxPoint x="180" y="70" as="targetPoint" />
          </mxGeometry>
        </mxCell>
        <mxCell id="dG8D63lNI3oWvQCbFCwT-13" value="&lt;div&gt;12v&lt;/div&gt;&lt;div&gt;in&lt;/div&gt;" style="ellipse;whiteSpace=wrap;html=1;aspect=fixed;" vertex="1" parent="1">
          <mxGeometry x="90" y="140" width="40" height="40" as="geometry" />
        </mxCell>
        <mxCell id="dG8D63lNI3oWvQCbFCwT-14" value="jack with switch" style="text;html=1;align=center;verticalAlign=middle;whiteSpace=wrap;rounded=0;" vertex="1" parent="1">
          <mxGeometry x="80" y="190" width="60" height="30" as="geometry" />
        </mxCell>
        <mxCell id="dG8D63lNI3oWvQCbFCwT-74" style="edgeStyle=orthogonalEdgeStyle;rounded=0;orthogonalLoop=1;jettySize=auto;html=1;exitX=0;exitY=1;exitDx=0;exitDy=0;" edge="1" parent="1" source="dG8D63lNI3oWvQCbFCwT-16">
          <mxGeometry relative="1" as="geometry">
            <mxPoint x="650" y="91" as="targetPoint" />
          </mxGeometry>
        </mxCell>
        <mxCell id="dG8D63lNI3oWvQCbFCwT-77" value="Iris Follow" style="edgeLabel;html=1;align=center;verticalAlign=middle;resizable=0;points=[];" vertex="1" connectable="0" parent="dG8D63lNI3oWvQCbFCwT-74">
          <mxGeometry x="0.3748" y="1" relative="1" as="geometry">
            <mxPoint x="1" as="offset" />
          </mxGeometry>
        </mxCell>
        <mxCell id="dG8D63lNI3oWvQCbFCwT-16" value="&lt;div&gt;HR10(a)-&lt;/div&gt;&lt;div&gt;10R-12S&lt;/div&gt;" style="ellipse;whiteSpace=wrap;html=1;aspect=fixed;" vertex="1" parent="1">
          <mxGeometry x="766.01" y="40" width="60" height="60" as="geometry" />
        </mxCell>
        <mxCell id="dG8D63lNI3oWvQCbFCwT-22" style="edgeStyle=orthogonalEdgeStyle;rounded=0;orthogonalLoop=1;jettySize=auto;html=1;exitX=1;exitY=0.5;exitDx=0;exitDy=0;entryX=0.5;entryY=0;entryDx=0;entryDy=0;" edge="1" parent="1" source="dG8D63lNI3oWvQCbFCwT-17" target="dG8D63lNI3oWvQCbFCwT-8">
          <mxGeometry relative="1" as="geometry" />
        </mxCell>
        <mxCell id="dG8D63lNI3oWvQCbFCwT-23" style="edgeStyle=orthogonalEdgeStyle;rounded=0;orthogonalLoop=1;jettySize=auto;html=1;exitX=1;exitY=0.5;exitDx=0;exitDy=0;entryX=0;entryY=0.5;entryDx=0;entryDy=0;" edge="1" parent="1" source="dG8D63lNI3oWvQCbFCwT-17" target="dG8D63lNI3oWvQCbFCwT-16">
          <mxGeometry relative="1" as="geometry" />
        </mxCell>
        <mxCell id="dG8D63lNI3oWvQCbFCwT-24" value="12V / GND" style="edgeLabel;html=1;align=center;verticalAlign=middle;resizable=0;points=[];" vertex="1" connectable="0" parent="dG8D63lNI3oWvQCbFCwT-23">
          <mxGeometry x="-0.2679" y="1" relative="1" as="geometry">
            <mxPoint as="offset" />
          </mxGeometry>
        </mxCell>
        <mxCell id="dG8D63lNI3oWvQCbFCwT-65" style="edgeStyle=orthogonalEdgeStyle;rounded=0;orthogonalLoop=1;jettySize=auto;html=1;exitX=0.25;exitY=1;exitDx=0;exitDy=0;entryX=0.5;entryY=0;entryDx=0;entryDy=0;" edge="1" parent="1" source="dG8D63lNI3oWvQCbFCwT-60" target="dG8D63lNI3oWvQCbFCwT-3">
          <mxGeometry relative="1" as="geometry" />
        </mxCell>
        <mxCell id="dG8D63lNI3oWvQCbFCwT-66" value="Analog Iris" style="edgeLabel;html=1;align=center;verticalAlign=middle;resizable=0;points=[];" vertex="1" connectable="0" parent="dG8D63lNI3oWvQCbFCwT-65">
          <mxGeometry x="0.0474" relative="1" as="geometry">
            <mxPoint as="offset" />
          </mxGeometry>
        </mxCell>
        <mxCell id="dG8D63lNI3oWvQCbFCwT-17" value="&lt;div&gt;HR10(a)-&lt;/div&gt;&lt;div&gt;10R-12P&lt;/div&gt;" style="ellipse;whiteSpace=wrap;html=1;aspect=fixed;" vertex="1" parent="1">
          <mxGeometry x="80" y="40" width="60" height="60" as="geometry" />
        </mxCell>
        <mxCell id="dG8D63lNI3oWvQCbFCwT-19" value="To Camera" style="text;html=1;align=center;verticalAlign=middle;whiteSpace=wrap;rounded=0;" vertex="1" parent="1">
          <mxGeometry x="75" y="100" width="70" height="30" as="geometry" />
        </mxCell>
        <mxCell id="dG8D63lNI3oWvQCbFCwT-20" value="To Lens" style="text;html=1;align=center;verticalAlign=middle;whiteSpace=wrap;rounded=0;" vertex="1" parent="1">
          <mxGeometry x="766.01" y="100" width="60" height="30" as="geometry" />
        </mxCell>
        <mxCell id="dG8D63lNI3oWvQCbFCwT-35" style="edgeStyle=orthogonalEdgeStyle;rounded=0;orthogonalLoop=1;jettySize=auto;html=1;exitX=0.5;exitY=1;exitDx=0;exitDy=0;" edge="1" parent="1" source="dG8D63lNI3oWvQCbFCwT-34">
          <mxGeometry relative="1" as="geometry">
            <mxPoint x="280" y="30" as="targetPoint" />
          </mxGeometry>
        </mxCell>
        <mxCell id="dG8D63lNI3oWvQCbFCwT-34" value="Jumper Contacts to breake connection to either camera or lens" style="text;html=1;align=center;verticalAlign=middle;whiteSpace=wrap;rounded=0;" vertex="1" parent="1">
          <mxGeometry x="170" y="-20" width="220" height="30" as="geometry" />
        </mxCell>
        <mxCell id="dG8D63lNI3oWvQCbFCwT-41" style="edgeStyle=orthogonalEdgeStyle;rounded=0;orthogonalLoop=1;jettySize=auto;html=1;exitX=0;exitY=0.5;exitDx=0;exitDy=0;" edge="1" parent="1" source="dG8D63lNI3oWvQCbFCwT-37">
          <mxGeometry relative="1" as="geometry">
            <mxPoint x="80" y="290" as="targetPoint" />
          </mxGeometry>
        </mxCell>
        <mxCell id="dG8D63lNI3oWvQCbFCwT-37" value="&lt;div&gt;RS485&lt;/div&gt;&lt;div&gt;Driver&lt;/div&gt;&lt;br&gt;MAX485" style="whiteSpace=wrap;html=1;aspect=fixed;" vertex="1" parent="1">
          <mxGeometry x="130" y="250" width="80" height="80" as="geometry" />
        </mxCell>
        <mxCell id="dG8D63lNI3oWvQCbFCwT-42" value="&lt;div&gt;for future expansion&lt;/div&gt;&lt;div&gt;Digital demands&lt;/div&gt;" style="text;html=1;align=center;verticalAlign=middle;whiteSpace=wrap;rounded=0;" vertex="1" parent="1">
          <mxGeometry x="30" y="275" width="60" height="30" as="geometry" />
        </mxCell>
        <mxCell id="dG8D63lNI3oWvQCbFCwT-55" value="&lt;div&gt;HR10(a)-&lt;/div&gt;&lt;div&gt;10R-10S&lt;/div&gt;" style="ellipse;whiteSpace=wrap;html=1;aspect=fixed;" vertex="1" parent="1">
          <mxGeometry x="786.01" y="430" width="60" height="60" as="geometry" />
        </mxCell>
        <mxCell id="dG8D63lNI3oWvQCbFCwT-57" value="to Lens&lt;br&gt;Breakout&lt;br&gt;zoom/focus" style="text;html=1;align=center;verticalAlign=middle;whiteSpace=wrap;rounded=0;" vertex="1" parent="1">
          <mxGeometry x="781.01" y="490" width="70" height="50" as="geometry" />
        </mxCell>
        <mxCell id="dG8D63lNI3oWvQCbFCwT-61" style="edgeStyle=orthogonalEdgeStyle;rounded=0;orthogonalLoop=1;jettySize=auto;html=1;exitX=0.25;exitY=0;exitDx=0;exitDy=0;entryX=0.5;entryY=1;entryDx=0;entryDy=0;" edge="1" parent="1" source="dG8D63lNI3oWvQCbFCwT-59" target="dG8D63lNI3oWvQCbFCwT-16">
          <mxGeometry relative="1" as="geometry">
            <Array as="points">
              <mxPoint x="746.01" y="140" />
              <mxPoint x="746.01" y="100" />
            </Array>
          </mxGeometry>
        </mxCell>
        <mxCell id="dG8D63lNI3oWvQCbFCwT-63" value="CH1" style="edgeLabel;html=1;align=center;verticalAlign=middle;resizable=0;points=[];" vertex="1" connectable="0" parent="dG8D63lNI3oWvQCbFCwT-61">
          <mxGeometry x="-0.4" y="2" relative="1" as="geometry">
            <mxPoint as="offset" />
          </mxGeometry>
        </mxCell>
        <mxCell id="dG8D63lNI3oWvQCbFCwT-62" style="edgeStyle=orthogonalEdgeStyle;rounded=0;orthogonalLoop=1;jettySize=auto;html=1;exitX=1;exitY=1;exitDx=0;exitDy=0;" edge="1" parent="1" source="dG8D63lNI3oWvQCbFCwT-59" target="dG8D63lNI3oWvQCbFCwT-55">
          <mxGeometry relative="1" as="geometry" />
        </mxCell>
        <mxCell id="dG8D63lNI3oWvQCbFCwT-64" value="CH2&lt;br&gt;CH3" style="edgeLabel;html=1;align=center;verticalAlign=middle;resizable=0;points=[];" vertex="1" connectable="0" parent="dG8D63lNI3oWvQCbFCwT-62">
          <mxGeometry x="-0.0381" relative="1" as="geometry">
            <mxPoint as="offset" />
          </mxGeometry>
        </mxCell>
        <mxCell id="dG8D63lNI3oWvQCbFCwT-67" style="edgeStyle=orthogonalEdgeStyle;rounded=0;orthogonalLoop=1;jettySize=auto;html=1;entryX=1;entryY=0.5;entryDx=0;entryDy=0;" edge="1" parent="1" target="dG8D63lNI3oWvQCbFCwT-3">
          <mxGeometry relative="1" as="geometry">
            <mxPoint x="640" y="220" as="sourcePoint" />
          </mxGeometry>
        </mxCell>
        <mxCell id="dG8D63lNI3oWvQCbFCwT-68" value="CH2:&lt;br&gt;Zoom follow&lt;br&gt;CH3:&lt;br&gt;&lt;div&gt;Focus Follow&lt;/div&gt;&lt;div&gt;(Planned)&lt;/div&gt;" style="edgeLabel;html=1;align=center;verticalAlign=middle;resizable=0;points=[];" vertex="1" connectable="0" parent="dG8D63lNI3oWvQCbFCwT-67">
          <mxGeometry x="-0.1412" y="-1" relative="1" as="geometry">
            <mxPoint x="26" y="-9" as="offset" />
          </mxGeometry>
        </mxCell>
        <mxCell id="dG8D63lNI3oWvQCbFCwT-59" value="OpAmp&lt;br&gt;&lt;div&gt;Levelshifter&lt;/div&gt;&lt;div&gt;&lt;br&gt;&lt;/div&gt;&lt;div&gt;LM324&lt;/div&gt;" style="whiteSpace=wrap;html=1;aspect=fixed;" vertex="1" parent="1">
          <mxGeometry x="736.01" y="140" width="80" height="80" as="geometry" />
        </mxCell>
        <mxCell id="dG8D63lNI3oWvQCbFCwT-72" value="" style="edgeStyle=orthogonalEdgeStyle;rounded=0;orthogonalLoop=1;jettySize=auto;html=1;exitX=1;exitY=0;exitDx=0;exitDy=0;entryX=0.5;entryY=0;entryDx=0;entryDy=0;" edge="1" parent="1" source="dG8D63lNI3oWvQCbFCwT-17" target="dG8D63lNI3oWvQCbFCwT-60">
          <mxGeometry relative="1" as="geometry">
            <mxPoint x="131" y="49" as="sourcePoint" />
            <mxPoint x="540" y="180" as="targetPoint" />
          </mxGeometry>
        </mxCell>
        <mxCell id="dG8D63lNI3oWvQCbFCwT-60" value="&lt;div&gt;Voltage&lt;/div&gt;&lt;div&gt;divider&lt;/div&gt;" style="whiteSpace=wrap;html=1;aspect=fixed;" vertex="1" parent="1">
          <mxGeometry x="520" y="90" width="50" height="50" as="geometry" />
        </mxCell>
        <mxCell id="dG8D63lNI3oWvQCbFCwT-76" style="edgeStyle=orthogonalEdgeStyle;rounded=0;orthogonalLoop=1;jettySize=auto;html=1;exitX=0.25;exitY=1;exitDx=0;exitDy=0;entryX=1;entryY=0;entryDx=0;entryDy=0;" edge="1" parent="1" source="dG8D63lNI3oWvQCbFCwT-75" target="dG8D63lNI3oWvQCbFCwT-3">
          <mxGeometry relative="1" as="geometry" />
        </mxCell>
        <mxCell id="dG8D63lNI3oWvQCbFCwT-75" value="&lt;div&gt;Voltage&lt;/div&gt;&lt;div&gt;divider&lt;/div&gt;" style="whiteSpace=wrap;html=1;aspect=fixed;" vertex="1" parent="1">
          <mxGeometry x="600" y="80" width="50" height="50" as="geometry" />
        </mxCell>
      </root>
    </mxGraphModel>
  </diagram>
</mxfile>
